<?xml version="1.0" encoding="us-ascii" standalone="no"?><svg xmlns="http://www.w3.org/2000/svg" xmlns:xlink="http://www.w3.org/1999/xlink" contentStyleType="text/css" height="228px" preserveAspectRatio="none" style="width:582px;height:228px;background:#FFFFFF;" version="1.1" viewBox="0 0 582 228" width="582px" zoomAndPan="magnify"><defs/><g><!--cluster flyweight_wea--><g id="cluster_flyweight_wea"><path d="M8.5,6 L124.5,6 A3.75,3.75 0 0 1 127,8.5 L134,28.2969 L572.5,28.2969 A2.5,2.5 0 0 1 575,30.7969 L575,218.5 A2.5,2.5 0 0 1 572.5,221 L8.5,221 A2.5,2.5 0 0 1 6,218.5 L6,8.5 A2.5,2.5 0 0 1 8.5,6 " fill="none" style="stroke:#000000;stroke-width:1.5;"/><line style="stroke:#000000;stroke-width:1.5;" x1="6" x2="134" y1="28.2969" y2="28.2969"/><text fill="#000000" font-family="sans-serif" font-size="14" font-weight="bold" lengthAdjust="spacing" textLength="115" x="10" y="20.9951">flyweight_wea</text></g><!--cluster flyweight.dart--><g id="cluster_flyweight.dart"><path d="M32.5,49 L149.5,49 A3.75,3.75 0 0 1 152,51.5 L159,71.2969 L548.5,71.2969 A2.5,2.5 0 0 1 551,73.7969 L551,194.5 A2.5,2.5 0 0 1 548.5,197 L32.5,197 A2.5,2.5 0 0 1 30,194.5 L30,51.5 A2.5,2.5 0 0 1 32.5,49 " fill="none" style="stroke:#000000;stroke-width:1.5;"/><line style="stroke:#000000;stroke-width:1.5;" x1="30" x2="159" y1="71.2969" y2="71.2969"/><text fill="#000000" font-family="sans-serif" font-size="14" font-weight="bold" lengthAdjust="spacing" textLength="116" x="34" y="63.9951">flyweight.dart</text></g><!--class Flyweight--><g id="elem_Flyweight"><rect codeLine="3" fill="#F1F1F1" height="80.5938" id="Flyweight" rx="2.5" ry="2.5" style="stroke:#181818;stroke-width:0.5;" width="169" x="365.5" y="92"/><ellipse cx="411.25" cy="108" fill="#ADD1B2" rx="11" ry="11" style="stroke:#181818;stroke-width:1.0;"/><path d="M413.5938,103.6719 C412.6563,103.2344 412.0625,103.0938 411.1875,103.0938 C408.5625,103.0938 406.5625,105.1719 406.5625,107.8906 L406.5625,109.0156 C406.5625,111.5938 408.6719,113.4844 411.5625,113.4844 C412.7813,113.4844 413.9375,113.1875 414.6875,112.6406 C415.2656,112.2344 415.5938,111.7813 415.5938,111.3906 C415.5938,110.9375 415.2031,110.5469 414.7344,110.5469 C414.5156,110.5469 414.3125,110.625 414.125,110.8125 C413.6719,111.2969 413.6719,111.2969 413.4844,111.3906 C413.0625,111.6563 412.375,111.7813 411.6094,111.7813 C409.5625,111.7813 408.2656,110.6875 408.2656,108.9844 L408.2656,107.8906 C408.2656,106.1094 409.5156,104.7969 411.25,104.7969 C411.8281,104.7969 412.4375,104.9531 412.9063,105.2031 C413.3906,105.4844 413.5625,105.7031 413.6563,106.1094 C413.7188,106.5156 413.75,106.6406 413.8906,106.7656 C414.0313,106.9063 414.2656,107.0156 414.4844,107.0156 C414.75,107.0156 415.0156,106.875 415.1875,106.6563 C415.2969,106.5 415.3281,106.3125 415.3281,105.8906 L415.3281,104.4688 C415.3281,104.0313 415.3125,103.9063 415.2188,103.75 C415.0625,103.4844 414.7813,103.3438 414.4844,103.3438 C414.1875,103.3438 413.9844,103.4375 413.7656,103.75 L413.5938,103.6719 Z " fill="#000000"/><text fill="#000000" font-family="sans-serif" font-size="14" lengthAdjust="spacing" textLength="69" x="431.75" y="112.8467">Flyweight</text><line style="stroke:#181818;stroke-width:0.5;" x1="366.5" x2="533.5" y1="124" y2="124"/><rect fill="none" height="6" style="stroke:#C82930;stroke-width:1.0;" width="6" x="373.5" y="134.6484"/><text fill="#000000" font-family="sans-serif" font-size="14" lengthAdjust="spacing" textLength="143" x="385.5" y="140.9951">String _sharedState</text><line style="stroke:#181818;stroke-width:0.5;" x1="366.5" x2="533.5" y1="148.2969" y2="148.2969"/><ellipse cx="376.5" cy="161.9453" fill="#84BE84" rx="3" ry="3" style="stroke:#038048;stroke-width:1.0;"/><text fill="#000000" font-family="sans-serif" font-size="14" lengthAdjust="spacing" textLength="115" x="385.5" y="165.292">void operation()</text></g><!--class FlyweightFactory--><g id="elem_FlyweightFactory"><rect codeLine="8" fill="#F1F1F1" height="96.8906" id="FlyweightFactory" rx="2.5" ry="2.5" style="stroke:#181818;stroke-width:0.5;" width="284" x="46" y="84"/><ellipse cx="122.25" cy="100" fill="#ADD1B2" rx="11" ry="11" style="stroke:#181818;stroke-width:1.0;"/><path d="M124.5938,95.6719 C123.6563,95.2344 123.0625,95.0938 122.1875,95.0938 C119.5625,95.0938 117.5625,97.1719 117.5625,99.8906 L117.5625,101.0156 C117.5625,103.5938 119.6719,105.4844 122.5625,105.4844 C123.7813,105.4844 124.9375,105.1875 125.6875,104.6406 C126.2656,104.2344 126.5938,103.7813 126.5938,103.3906 C126.5938,102.9375 126.2031,102.5469 125.7344,102.5469 C125.5156,102.5469 125.3125,102.625 125.125,102.8125 C124.6719,103.2969 124.6719,103.2969 124.4844,103.3906 C124.0625,103.6563 123.375,103.7813 122.6094,103.7813 C120.5625,103.7813 119.2656,102.6875 119.2656,100.9844 L119.2656,99.8906 C119.2656,98.1094 120.5156,96.7969 122.25,96.7969 C122.8281,96.7969 123.4375,96.9531 123.9063,97.2031 C124.3906,97.4844 124.5625,97.7031 124.6563,98.1094 C124.7188,98.5156 124.75,98.6406 124.8906,98.7656 C125.0313,98.9063 125.2656,99.0156 125.4844,99.0156 C125.75,99.0156 126.0156,98.875 126.1875,98.6563 C126.2969,98.5 126.3281,98.3125 126.3281,97.8906 L126.3281,96.4688 C126.3281,96.0313 126.3125,95.9063 126.2188,95.75 C126.0625,95.4844 125.7813,95.3438 125.4844,95.3438 C125.1875,95.3438 124.9844,95.4375 124.7656,95.75 L124.5938,95.6719 Z " fill="#000000"/><text fill="#000000" font-family="sans-serif" font-size="14" lengthAdjust="spacing" textLength="123" x="142.75" y="104.8467">FlyweightFactory</text><line style="stroke:#181818;stroke-width:0.5;" x1="47" x2="329" y1="116" y2="116"/><rect fill="none" height="6" style="stroke:#C82930;stroke-width:1.0;" width="6" x="54" y="126.6484"/><text fill="#000000" font-family="sans-serif" font-size="14" lengthAdjust="spacing" textLength="258" x="66" y="132.9951">Map&lt;String, Flyweight&gt; _flyweights</text><line style="stroke:#181818;stroke-width:0.5;" x1="47" x2="329" y1="140.2969" y2="140.2969"/><ellipse cx="57" cy="153.9453" fill="#84BE84" rx="3" ry="3" style="stroke:#038048;stroke-width:1.0;"/><text fill="#000000" font-family="sans-serif" font-size="14" lengthAdjust="spacing" textLength="184" x="66" y="157.292">Flyweight? getFlyweight()</text><ellipse cx="57" cy="170.2422" fill="#84BE84" rx="3" ry="3" style="stroke:#038048;stroke-width:1.0;"/><text fill="#000000" font-family="sans-serif" font-size="14" lengthAdjust="spacing" textLength="142" x="66" y="173.5889">void listFlyweights()</text></g><!--SRC=[bOxB2i8m44Nt-OgXAyN71mJHNNUkyW5XICOsK9kG6In5_7TJj77jyjnvdCiaCEATEA4ZGmapIioWjL9kG6PeRiCyKUXwiHEXrXMF7hDetQxSm5C178paC7PWkSTCtWWAbNZtYC53J5JUXpXkjkhrjw15LwhDNyyLq-dZsaDTEOEjvxnew-G27Kcbubyx3O5_EI_5tW00]--></g></svg>